<svg width="672" height="672" viewBox="0 0 672 672" fill="none" xmlns="http://www.w3.org/2000/svg">
<path d="M376.926 508.703C376.667 508.774 376.448 508.945 376.315 509.178C376.183 509.412 376.149 509.688 376.22 509.946C376.291 510.205 376.462 510.424 376.696 510.556C376.929 510.689 377.205 510.723 377.463 510.652C385.954 508.792 393.914 505.036 400.748 499.665C426.721 480.479 425.377 453.263 440.161 428.365C451.988 409.381 462.37 411.565 461.564 409.113C461.534 409.016 461.484 408.926 461.418 408.849C461.352 408.772 461.271 408.709 461.179 408.665C461.088 408.621 460.988 408.596 460.887 408.592C460.785 408.588 460.684 408.605 460.59 408.642C414.087 425.745 440.362 486.729 376.926 508.703ZM565.119 448.962C566.43 447.585 567.74 446.14 569.017 444.695C578.895 432.7 585.817 414.119 585.145 400.444C585.128 400.296 585.07 400.156 584.979 400.04C584.888 399.923 584.766 399.833 584.627 399.781C584.488 399.729 584.337 399.716 584.191 399.744C584.046 399.772 583.911 399.84 583.801 399.94C582.793 400.914 585.615 406.29 578.526 423.225C571.806 439.285 565.926 443.385 559.306 450.877C553.376 457.724 548.869 465.683 546.048 474.29C543.227 482.897 542.149 491.98 542.876 501.009C542.915 501.198 543.018 501.369 543.168 501.492C543.318 501.614 543.505 501.681 543.699 501.681C543.893 501.681 544.081 501.614 544.231 501.492C544.381 501.369 544.484 501.198 544.522 501.009C544.292 491.396 545.997 481.835 549.535 472.894C553.073 463.953 558.373 455.814 565.119 448.962ZM270.111 303.877C273.471 301.559 273.236 294.469 270.111 291.849C269.228 291.135 268.198 290.626 267.095 290.356C265.992 290.086 264.843 290.062 263.729 290.287C262.616 290.511 261.566 290.979 260.654 291.655C259.742 292.331 258.99 293.201 258.452 294.201C257.828 295.764 257.716 297.484 258.131 299.115C258.546 300.746 259.468 302.204 260.763 303.279C262.058 304.354 263.66 304.991 265.34 305.098C267.019 305.206 268.69 304.778 270.111 303.877ZM260.871 296.183C261.879 292.353 268.498 291.815 269.506 295.645C270.178 298.266 269.876 300.114 268.532 301.122C267.724 301.624 266.806 301.921 265.857 301.985C264.908 302.05 263.957 301.88 263.089 301.492C262.18 300.981 261.467 300.182 261.066 299.219C260.664 298.257 260.595 297.188 260.871 296.183ZM384.922 241.717C384.793 241.708 384.664 241.726 384.542 241.769C384.42 241.812 384.308 241.88 384.213 241.968C384.119 242.056 384.043 242.163 383.992 242.282C383.941 242.401 383.914 242.529 383.914 242.658C383.914 246.018 378.236 249.378 377.194 249.714C376.994 249.763 376.821 249.89 376.714 250.066C376.607 250.243 376.574 250.455 376.623 250.655C376.672 250.856 376.799 251.028 376.975 251.135C377.152 251.243 377.364 251.275 377.564 251.226C386.401 249.412 387.745 241.65 384.922 241.717ZM373.129 236.577C372.726 236.341 370.945 235.031 370.306 234.527C370.306 234.09 371.886 228.479 372.188 227.404C372.49 226.329 371.113 226.06 370.743 226.933C369.338 229.657 368.212 232.517 367.383 235.468C367.652 236.442 372.322 237.719 372.658 237.719C372.798 237.738 372.941 237.71 373.063 237.64C373.186 237.569 373.281 237.46 373.335 237.33C373.389 237.199 373.398 237.054 373.36 236.918C373.323 236.782 373.242 236.662 373.129 236.577ZM362.041 218.567C361.993 218.277 361.843 218.013 361.618 217.822C361.394 217.632 361.109 217.528 360.814 217.528C360.52 217.528 360.235 217.632 360.011 217.822C359.786 218.013 359.636 218.277 359.588 218.567C359.46 220.884 359.46 223.206 359.588 225.522C359.799 225.867 360.118 226.131 360.496 226.274C360.873 226.416 361.288 226.429 361.673 226.309C362.059 226.189 362.394 225.945 362.625 225.614C362.855 225.282 362.969 224.884 362.948 224.481C362.483 222.538 362.179 220.56 362.041 218.567ZM385.527 224.447C385.096 222.52 384.793 220.567 384.62 218.601C384.62 218.271 384.489 217.955 384.256 217.722C384.023 217.488 383.707 217.357 383.377 217.357C383.047 217.357 382.731 217.488 382.498 217.722C382.265 217.955 382.134 218.271 382.134 218.601C382.012 220.839 382.012 223.082 382.134 225.321C382.153 225.581 382.228 225.834 382.356 226.061C382.483 226.289 382.659 226.486 382.87 226.638C383.082 226.79 383.325 226.894 383.581 226.942C383.837 226.99 384.101 226.982 384.354 226.917C384.606 226.852 384.842 226.732 385.043 226.566C385.244 226.4 385.406 226.192 385.518 225.956C385.63 225.721 385.689 225.463 385.691 225.203C385.692 224.942 385.636 224.684 385.527 224.447Z" fill="white"/>
<path d="M648.481 178.684C648.245 157.752 641.223 149.486 619.551 150.124C613.369 150.124 503.127 151.233 495.231 151.502C489.937 151.503 484.7 152.59 479.842 154.694C477.053 155.803 462.471 163.094 460.858 166.958C459.111 169.713 461.161 248.203 460.858 264.398C458.524 263.069 456.124 261.857 453.668 260.769C453.224 258.562 452.282 256.486 450.913 254.698C449.545 252.91 447.786 251.459 445.772 250.454C442.681 249.244 438.716 250.689 436.431 248.505C434.146 246.321 438.245 245.145 438.682 241.785C438.669 239.455 438.398 237.134 437.876 234.864C435.85 222.684 433.022 210.651 429.409 198.844C426.385 189.134 423.226 180.902 414.524 175.627C414.524 159.297 412.877 63.6044 411.97 58.5308C411.076 53.5235 408.405 49.0068 404.449 45.8097C400.493 42.6127 395.516 40.9497 390.433 41.126C390.097 41.126 158.861 41.126 158.593 41.3948C149.353 46.9052 146.866 59.2028 146.261 68.2748C146.06 72.8108 150.025 164.404 151.604 193.502C135.241 193.838 52.5846 196.056 47.847 198.576C37.1286 201.196 25.2678 208.656 22.9494 220.785C21.5046 228.58 24.4278 378.336 25.4022 385.425C26.1 393.083 29.5216 400.236 35.0454 405.585C41.0598 410.86 49.2582 411.835 56.4822 412.104L209.799 409.214C194.813 443.15 177.543 491.265 166.119 521.203C166.065 521.288 166.037 521.387 166.037 521.488C166.037 521.589 166.065 521.688 166.119 521.774C169.211 524.811 172.586 527.545 176.199 529.939C170.722 548.654 171.327 549.696 170.117 551.208C159.735 563.942 147.202 571.368 134.837 572.577C129.092 573.216 123.413 574.224 121.397 579.801C119.751 584.875 124.119 588.268 129.226 589.68C132.586 590.587 155.501 595.66 158.895 596.064C161.902 596.568 164.987 595.881 167.497 594.148C169.916 592.368 177.879 582.96 180.937 580.137C175.393 607.017 171.529 598.449 184.733 604.195C184.918 604.293 185.122 604.349 185.33 604.359C185.539 604.369 185.747 604.333 185.94 604.252C186.133 604.172 186.306 604.05 186.446 603.895C186.586 603.739 186.689 603.555 186.749 603.355C189.101 596.635 205.028 558.23 211.513 548.251C213.092 588.84 212.823 586.723 213.394 586.891C215.645 587.462 218.098 588 220.618 588.504C220.618 594.148 220.786 599.928 221.257 606.244C221.257 606.446 220.988 606.782 220.719 607.32C212.386 625.598 203.045 633.057 192.898 637.56C188.396 639.576 182.18 642.331 182.348 648.547C182.348 653.923 187.858 655.636 193.201 655.435C201.231 655.166 211.613 654.091 216.317 653.856C229.757 653.049 230.093 650.496 235.805 638.971C237.116 636.316 238.661 633.158 239.535 631.612C241.114 650.496 239.031 653.284 241.618 653.15C248.641 652.78 251.698 654.696 251.698 652.176C251.967 645.254 255.058 618.038 256.671 611.352C256.671 610.579 256.133 610.142 255.327 609.974C256.335 603.724 258.687 591.427 258.989 589.176C260.669 588.94 262.349 588.672 263.66 588.369C264.029 588.369 263.66 590.15 269.338 566.731C310.129 582.825 353.641 586.689 392.684 577.516C394.061 582.859 404.041 619.281 409.484 635.241C411.339 640.456 413.809 645.43 416.842 650.059C417.615 650.798 418.925 652.108 420.202 652.108C421.479 652.108 422.89 650.328 423.226 648.513C423.562 646.699 418.287 593.712 416.506 574.593C424.489 572.616 432.23 569.765 439.589 566.092L450.476 602.246C450.794 602.785 451.274 603.21 451.847 603.461C452.42 603.713 453.058 603.779 453.67 603.649C454.282 603.519 454.838 603.2 455.26 602.738C455.681 602.275 455.947 601.692 456.02 601.07L454.978 557.76C460.065 554.444 464.936 550.808 469.561 546.873C471.66 548.903 474.022 550.643 476.583 552.048C476.846 552.193 477.156 552.228 477.445 552.147C477.735 552.065 477.98 551.872 478.129 551.611C480.923 547.386 484.058 543.396 487.503 539.683C486.831 544.017 485.521 552.888 485.353 555.643C485.348 555.821 485.38 555.997 485.445 556.163C485.511 556.328 485.61 556.478 485.736 556.604C485.862 556.729 486.012 556.828 486.177 556.894C486.342 556.96 486.519 556.992 486.697 556.987C490.265 556.875 493.827 557.34 497.247 558.364C486.293 563.64 481.287 568.108 481.959 571.804C483.271 578.404 485.114 584.888 487.469 591.192C489.284 596.433 491.165 601.876 496.81 604.161C522.682 615.115 561.121 607.118 587.093 596.198C609.135 587.563 612.361 573.585 610.412 553.828C610.009 550.065 605.641 549.628 596.468 549.864L618.812 521.606C625.532 513.576 619.685 513.844 617.569 498.086C619.593 501.085 622.024 503.788 624.793 506.116C624.957 506.245 625.146 506.339 625.349 506.391C625.551 506.443 625.762 506.452 625.969 506.419C626.876 506.251 626.17 506.721 634.503 491.736C634.661 491.462 634.721 491.143 634.672 490.831C634.623 490.519 634.469 490.234 634.234 490.022C630.572 486.998 621.735 479.942 621.735 479.942C626.29 478.864 630.778 477.518 635.175 475.91C636.223 475.64 637.172 475.076 637.91 474.284C638.649 473.492 639.145 472.506 639.341 471.441C639.778 468.82 639.812 416.035 639.879 408.844C639.879 407.668 637.997 407.332 637.796 408.609C633.865 435.254 615.821 457.43 592.772 464.049C593.511 461.059 595.393 454.574 594.351 452.793C590.551 450.401 586.507 448.419 582.289 446.88C586.489 444.494 596.199 438.278 596.905 436.363C597.341 435.254 595.191 383.409 595.09 377.731C595.074 377.497 594.983 377.274 594.832 377.095C594.681 376.915 594.477 376.788 594.249 376.732C594.021 376.676 593.781 376.694 593.564 376.783C593.347 376.872 593.164 377.027 593.041 377.227C586.535 390.073 576.912 401.082 565.052 409.248C563.674 410.188 553.762 415.464 552.989 416.169C550.503 418.555 553.594 421.478 554.905 423.326C555.845 424.603 559.071 428.937 559.709 429.844C547.882 431.289 544.757 427.224 544.153 429.844C542.99 433.267 541.422 436.539 539.482 439.588C540.175 442.533 541.062 445.429 542.137 448.257C540.167 448.581 538.159 448.581 536.189 448.257C535.838 448.182 535.472 448.24 535.161 448.42C534.851 448.6 534.618 448.89 534.509 449.232C533.569 452.289 532.829 454.843 532.157 457.228C528.084 450.321 523.596 443.667 518.717 437.304C516.332 419.092 507.73 397.824 489.553 395.001C503.228 389.289 512.199 374.606 514.349 359.721C520.801 359.721 614.007 359.452 617.77 359.721C638.165 360.292 647.271 352.497 649.186 331.699C649.959 323.4 648.481 180.196 648.481 178.684ZM184.498 578.726C184.583 578.37 184.529 577.995 184.349 577.677C184.168 577.359 183.873 577.122 183.524 577.012C180.802 576.004 178.719 578.39 177.207 580.104C173.379 584.763 169.176 589.1 164.641 593.073C162.121 594.283 132.788 588.201 129.125 587.059C127.154 586.612 125.439 585.404 124.354 583.699C123.93 582.459 123.976 581.106 124.484 579.898C124.992 578.69 125.926 577.711 127.109 577.147C129.697 575.568 131.612 575.702 138.869 574.358C146.127 573.014 153.317 571.704 165.951 559.809C167.711 558.123 169.35 556.316 170.857 554.4C172.954 559.063 176.486 562.936 180.937 565.454C186.9 568.102 193.559 568.75 199.921 567.302C196.561 574.022 187.287 595.022 184.969 601.44C183.121 600.701 181.239 600.028 179.391 599.491C181.472 592.668 183.177 585.736 184.498 578.726ZM479.573 394.732C474.847 394.935 470.154 395.61 465.562 396.748C450.513 398.45 435.381 399.324 420.236 399.369C418.018 385.929 418.69 388.416 418.119 384.686C417.884 383.073 417.548 380.856 418.724 380.15C434.818 372.96 451.551 366.441 467.578 359.419C470.938 361.872 471.207 361.569 471.509 361.368C471.653 361.212 471.733 361.008 471.733 360.796C471.733 360.585 471.653 360.381 471.509 360.225C470.198 358.9 468.818 357.644 467.377 356.462C454.478 344.927 445.493 329.659 441.673 312.782C441.628 312.582 441.506 312.407 441.332 312.297C441.159 312.186 440.949 312.15 440.749 312.194C440.548 312.239 440.373 312.361 440.263 312.534C440.153 312.708 440.116 312.918 440.161 313.118C443.007 330.67 452.085 346.607 465.73 358.008L419.396 377.16C418.056 377.553 416.879 378.365 416.036 379.478C413.717 378.848 411.621 377.579 409.988 375.816C401.252 368.793 397.757 373.598 386.468 382.536C385.376 383.359 384.344 384.257 383.377 385.224C377.409 379.916 371.461 374.584 365.535 369.23C364.023 367.012 350.247 319.502 344.602 300.417C348.966 289.837 356.006 280.574 365.031 273.537C366.074 276.724 367.39 279.815 368.962 282.777C371.482 285.196 374.741 284.02 377.9 283.248C377.029 285.053 376.528 287.015 376.424 289.016C376.32 291.018 376.616 293.021 377.295 294.907C379.674 300.24 383.389 304.869 388.081 308.347C399.572 318.427 399.001 318.158 399.673 318.158C399.983 318.143 400.277 318.015 400.499 317.798C400.722 317.582 400.858 317.292 400.882 316.982C402.025 305.256 405.788 302.03 416.405 298.3C422.212 296.405 427.125 292.451 430.22 287.185C433.314 281.918 434.376 275.702 433.205 269.707C440.228 269.76 447.225 268.856 454.004 267.019C454.324 266.947 454.603 266.751 454.779 266.474C454.955 266.197 455.015 265.861 454.945 265.54C454.945 264.969 454.709 264.297 454.541 263.592C503.564 287.414 533.434 361.636 493.887 389.222C489.586 392.102 484.695 393.985 479.573 394.732ZM490.863 398.563C499.498 400.411 506.722 407.668 511.426 420.436C533.871 481.084 481.556 554.568 416.607 571.636C416.204 567.571 413.986 543.984 413.549 542.236C413.227 540.694 412.34 539.328 411.063 538.406C406.93 536.121 399.841 538.641 396.077 540.859C392.49 543.241 389.284 546.152 386.569 549.494C386.569 550.569 391.273 570.83 392.281 574.963C351.443 583.503 308.996 579.858 270.212 564.48C276.193 539.616 284.122 505.579 286.34 495.028C309.457 502.219 341.948 501.547 342.284 501.513C342.391 501.485 342.486 501.422 342.554 501.333C342.622 501.245 342.659 501.137 342.659 501.026C342.659 500.915 342.622 500.807 342.554 500.719C342.486 500.63 342.391 500.567 342.284 500.539C323.636 494.323 307.541 478.296 296.991 455.38C280.762 421.142 247.095 421.545 233.991 438.58C215.041 463.176 211.983 534.744 211.681 543.379C210.505 545.529 203.751 558.734 201.197 564.11C181.037 568.915 175.292 557.39 172.839 552.451C172.436 551.611 172.637 553.828 178.887 531.753C182.247 533.4 206.137 541.833 206.17 539.347C206.439 510.787 213.361 442.848 232.109 427.224C245.549 416.203 274.613 418.118 287.482 427.66C295.663 435.128 302.356 444.078 307.205 454.036C317.991 477.187 336.572 494.356 357.202 498.657C383.645 496.339 414.322 454.204 423.092 427.257C439.287 406.728 465.999 394.968 490.863 398.563ZM543.447 535.214C543.492 535.415 543.614 535.589 543.787 535.699C543.961 535.81 544.17 535.847 544.371 535.802C544.571 535.758 544.746 535.635 544.856 535.462C544.967 535.289 545.004 535.079 544.959 534.878C542.842 524.059 536.861 514.718 533.098 504.638C526.58 487.401 531.317 468.888 536.828 451.382C539.286 451.841 541.826 451.512 544.085 450.441C545.933 448.996 544.455 446.544 542.372 440.361C544.085 437.771 545.43 434.955 546.37 431.995C551.622 433.237 557.083 433.306 562.364 432.197C562.569 432.144 562.759 432.044 562.918 431.905C563.077 431.765 563.201 431.59 563.279 431.393C563.358 431.197 563.389 430.985 563.37 430.774C563.351 430.563 563.283 430.36 563.17 430.18C560.919 427.224 554.972 419.126 554.669 418.521C554.367 417.916 554.669 417.984 555.644 417.547C571.704 410.238 584.874 397.79 593.074 382.166C593.477 393.153 594.788 434.044 594.418 435.691C589.198 439.469 583.693 442.839 577.954 445.771C577.704 445.909 577.5 446.119 577.369 446.373C577.237 446.627 577.184 446.915 577.217 447.199C577.249 447.484 577.365 447.752 577.55 447.97C577.736 448.188 577.981 448.347 578.257 448.425C583.01 450.051 587.619 452.074 592.033 454.473C592.637 455.448 590.521 463.142 590.151 465.124L586.791 465.796C586.457 465.884 586.169 466.097 585.987 466.391C585.806 466.685 585.745 467.038 585.817 467.376C586.69 473.323 588.673 487.972 588.673 487.972C579.029 479.001 579.097 474.028 577.013 473.827C576.807 473.801 576.597 473.827 576.403 473.904C576.209 473.98 576.038 474.104 575.905 474.264C560.105 492.596 551.235 515.888 550.839 540.086C550.877 540.268 550.976 540.431 551.12 540.548C551.263 540.665 551.443 540.729 551.629 540.729C551.814 540.729 551.994 540.665 552.138 540.548C552.281 540.431 552.38 540.268 552.418 540.086C553.683 517.191 562.177 495.286 576.677 477.523C580.019 483.28 584.406 488.362 589.613 492.508C589.835 492.706 590.114 492.828 590.409 492.857C590.704 492.887 591.001 492.823 591.258 492.674C591.515 492.525 591.718 492.299 591.839 492.028C591.96 491.757 591.992 491.455 591.932 491.164C591.932 491.164 589.513 474.801 588.572 468.148C611.453 464.083 631.109 444.628 637.729 419.832C637.729 433.641 637.258 467.88 637.258 468.216C637.258 470.4 637.258 472.483 635.309 473.457C629.799 475.393 624.191 477.042 618.509 478.396C618.277 478.458 618.065 478.581 617.896 478.752C617.727 478.923 617.607 479.137 617.548 479.37C617.49 479.603 617.495 479.848 617.564 480.079C617.633 480.31 617.762 480.518 617.938 480.681C619.517 481.958 628.589 489.384 631.58 491.769C631.58 491.769 627.481 499.598 625.397 503.462C621.99 500.31 619.169 496.578 617.065 492.441C616.928 492.206 616.718 492.022 616.468 491.918C616.217 491.813 615.938 491.794 615.675 491.862C615.412 491.931 615.179 492.084 615.011 492.298C614.843 492.511 614.75 492.774 614.746 493.046C615.687 515.491 622.877 512.568 616.93 519.926C596.434 545.697 592.839 554.03 570.764 560.548C575.199 540.388 590.386 532.224 596.468 517.675C599.828 509.712 599.089 500.875 601.743 492.878C603.591 487.328 606.612 482.241 610.601 477.962C614.59 473.683 619.453 470.313 624.86 468.081C625.056 468.014 625.217 467.872 625.309 467.687C625.4 467.501 625.414 467.286 625.347 467.09C625.28 466.894 625.138 466.733 624.952 466.641C624.766 466.55 624.552 466.536 624.356 466.603C617.314 469.087 611.101 473.478 606.408 479.286C601.716 485.094 598.728 492.091 597.778 499.497C596.333 509.812 596.636 514.886 590.185 523.924C583.061 533.836 571.402 542.606 567.639 561.388C561.796 562.843 555.815 563.677 549.797 563.875C549.092 557.86 545.396 554.332 542.775 554.198C540.356 549.964 514.853 511.156 505.445 502.656C515.849 483.933 520.632 462.607 519.221 441.235C523.253 447.182 530.141 458.337 531.351 460.521C519.625 505.747 538.777 512.534 543.447 535.214ZM490.46 536.692C490.459 536.455 490.39 536.224 490.262 536.024C490.133 535.825 489.951 535.667 489.735 535.568C489.52 535.469 489.281 535.434 489.046 535.466C488.811 535.499 488.591 535.598 488.41 535.752C484.114 540.017 480.211 544.661 476.751 549.628C474.772 548.474 472.915 547.123 471.207 545.596C479.328 538.54 486.692 530.657 493.181 522.076C528.865 564.883 527.151 563.64 528.159 562.833C528.238 562.78 528.305 562.711 528.357 562.63C528.409 562.55 528.443 562.459 528.459 562.365C528.475 562.271 528.471 562.175 528.448 562.082C528.426 561.989 528.384 561.902 528.327 561.825C525.975 558.264 502.018 528.225 494.727 519.792C498.189 515.007 501.354 510.013 504.202 504.84C517.642 517.977 538.508 552.552 540.457 555.811C538.601 558.479 537.734 561.711 538.004 564.95C533.759 566.136 529.299 566.331 524.967 565.521C519.826 564.513 500.607 555.072 488.007 554.702C488.813 551.04 490.09 539.851 490.561 536.692H490.46ZM402.495 540.96H403.066C405.687 540.355 409.786 539.448 410.761 542.102C411.265 543.916 421.412 644.145 421.412 647.237C421.466 647.724 421.412 648.217 421.256 648.681C421.099 649.145 420.843 649.57 420.505 649.924C411.769 646.564 390.265 557.424 389.425 549.864C392.811 545.675 397.357 542.578 402.495 540.96ZM44.7222 382.3C44.7222 374.606 39.615 222.062 40.119 216.552C40.9926 206.169 44.7222 201.499 52.9542 200.424C61.6566 198.744 142.901 196.425 151.772 196.19C151.973 199.55 152.141 201.902 152.209 202.339C152.581 204.982 153.842 207.42 155.784 209.252C157.725 211.084 160.233 212.201 162.893 212.419C162.893 212.083 160.676 212.419 230.093 212.654C230.093 223.137 230.732 272.395 230.765 274.713C211.009 275.452 190.647 276.259 186.749 276.628C186.212 276.628 185.741 277.603 185.943 278.073C191.789 292.521 217.829 351.187 225.121 366.24C225.801 367.95 226.969 369.423 228.481 370.473C229.421 371.884 230.53 373.464 231.841 375.043C221.189 383.544 217.359 392.952 211.177 406.728C182.717 407.332 67.3686 409.718 64.7814 409.617C57.591 409.315 52.5174 407.232 49.359 403.267C44.5542 397.555 44.7558 389.76 44.7222 382.3ZM433.441 248.102C434.146 250.656 436.801 252.033 440.9 252.134C447.956 251.832 450.98 257.913 452.257 264.902C445.388 266.244 438.42 267.02 431.425 267.22C431.222 267.223 431.023 267.272 430.843 267.364C430.662 267.456 430.506 267.588 430.385 267.751C430.265 267.914 430.184 268.103 430.148 268.302C430.113 268.501 430.124 268.706 430.181 268.9C431.254 272.736 431.264 276.791 430.211 280.632C429.158 284.473 427.08 287.955 424.201 290.707C415.162 299.409 400.681 294.604 398.564 314.664C395.54 312.043 384.351 302.534 382.066 299.745C378.135 295.209 376.556 287.683 380.588 282.945C389.222 281.534 397.948 280.759 406.695 280.627C406.891 280.627 407.079 280.549 407.218 280.41C407.356 280.272 407.434 280.084 407.434 279.888C407.434 279.692 407.356 279.504 407.218 279.365C407.079 279.226 406.891 279.148 406.695 279.148C396.631 278.435 386.516 279.159 376.657 281.299C372.893 282.34 371.045 283.08 369.365 279.552C368.525 277.771 363.519 262.516 362.645 259.694C361.1 256.032 362.041 257.14 364.863 255.393C367.628 257.73 370.732 259.633 374.069 261.038C374.069 261.441 375.817 266.784 376.085 267.758C376.199 268.565 376.603 269.304 377.221 269.835C377.84 270.367 378.63 270.656 379.445 270.648C387.281 271.367 395.175 270.22 402.482 267.3C409.788 264.38 416.298 259.77 421.479 253.848C421.582 253.707 421.629 253.533 421.611 253.359C421.593 253.186 421.511 253.025 421.382 252.908C421.253 252.791 421.084 252.726 420.91 252.726C420.735 252.726 420.567 252.79 420.437 252.907C415.233 258.167 408.981 262.273 402.087 264.959C395.193 267.645 387.81 268.85 380.42 268.497C378.068 268.329 378.37 268.833 376.388 261.777C385.46 264.331 387.745 260.87 384.519 264.062C384.414 264.188 384.356 264.346 384.354 264.51C384.353 264.674 384.409 264.833 384.512 264.96C384.616 265.087 384.76 265.174 384.921 265.207C385.081 265.239 385.248 265.214 385.393 265.137C397.614 255.999 406.531 243.132 410.794 228.48C410.825 228.385 410.836 228.285 410.828 228.185C410.819 228.086 410.79 227.99 410.743 227.902C410.696 227.814 410.631 227.736 410.554 227.674C410.476 227.612 410.386 227.566 410.29 227.539C408.543 226.934 409.719 230.395 401.521 243.801C398.161 230.361 400.412 216.148 396.783 202.641C396.734 202.45 396.611 202.285 396.441 202.185C396.271 202.084 396.067 202.055 395.876 202.104C395.684 202.153 395.52 202.276 395.419 202.446C395.318 202.616 395.289 202.819 395.338 203.011C395.927 205.869 396.308 208.766 396.481 211.68C389.324 204.59 374.204 193.267 362.276 195.854C359.706 195.933 357.271 197.021 355.497 198.883C353.724 200.744 352.755 203.229 352.801 205.8C349.911 201.902 351.927 195.955 354.548 192.662C361.469 183.624 373.767 179.222 386.031 175.862C396.884 172.972 411.399 173.376 419.631 183.187C423.202 188.083 425.782 193.63 427.225 199.516C431.516 212.781 434.51 226.43 436.162 240.273C436.29 240.831 436.264 241.414 436.086 241.958C435.909 242.503 435.587 242.989 435.154 243.364C434.483 243.939 433.973 244.677 433.673 245.507C433.372 246.338 433.292 247.232 433.441 248.102ZM227.573 365.433C224.415 358.713 193.201 289.497 188.228 278.073C199.349 278.073 324.845 273.47 327.029 273.403C331.297 287.112 356.161 369.902 356.161 370.608C356.161 370.608 326.458 371.347 310.431 371.985C283.383 358.344 258.351 359.822 240.14 369.465C229.858 369.028 229.388 369.23 227.573 365.433ZM355.253 226.06C354.783 215.98 355.253 208.958 356.833 208.252C362.612 205.632 373.397 204.892 385.393 208.689C386.905 209.193 391.743 211.713 396.615 213.763C397.153 224.515 396.615 235.905 399.975 246.321C397.005 251.529 393.19 256.208 388.685 260.164C368.357 262.852 356.161 246.59 355.186 226.06H355.253ZM386.098 426.988C385.292 428.534 398.967 438.816 400.445 439.924C405.284 444.494 399.37 446.98 394.465 442.579C367.585 418.42 344.669 390.734 314.799 374.203C332.204 373.632 353.741 372.993 357.437 372.96C361.167 376.555 404.477 417.11 415.666 426.72C384.418 426.955 386.401 426.451 386.031 426.988H386.098ZM419.093 426.518C418.757 426.216 361.973 374.908 359.789 372.355C358.513 370.204 334.959 290.27 329.549 274.176C332.868 276.439 335.33 279.753 336.538 283.584C338.554 289.329 361.436 365.937 361.537 366.307C361.811 368.167 362.643 369.901 363.922 371.28C372.759 379.78 410.257 413.784 422.453 423.864C421.748 424.737 421.042 425.611 420.37 426.518H419.093ZM416.641 394.228C410.794 393.758 408.946 393.086 407.501 394.867C407.031 395.606 405.687 397.252 403.973 396.883C403.676 396.814 403.397 396.684 403.152 396.501C402.907 396.319 402.703 396.088 402.551 395.823C402.4 395.558 402.305 395.265 402.272 394.962C402.239 394.658 402.269 394.352 402.361 394.06C404.007 392.515 405.721 391.171 407.266 389.524C407.349 389.408 407.39 389.268 407.384 389.126C407.377 388.983 407.323 388.847 407.231 388.739C407.138 388.631 407.012 388.557 406.872 388.528C406.732 388.5 406.587 388.52 406.46 388.584C404.746 389.692 403.1 391.473 401.151 392.649C400.99 392.651 400.832 392.689 400.687 392.758C400.542 392.828 400.413 392.928 400.311 393.052C399.908 393.216 399.474 393.284 399.04 393.252C398.607 393.219 398.187 393.088 397.813 392.867C397.439 392.645 397.122 392.341 396.885 391.977C396.648 391.613 396.498 391.199 396.447 390.768C396.447 388.08 399.337 386.299 401.017 384.316C401.689 383.644 400.681 382.636 399.975 383.275C398.175 384.795 396.501 386.458 394.969 388.248C393.033 388.863 391.057 389.346 389.055 389.692C388.148 389.692 389.055 390.264 385.09 386.87C389.224 382.993 393.725 379.527 398.53 376.521C406.695 371.145 408.207 380.452 415.565 381.528C415.558 385.784 415.918 390.034 416.641 394.228ZM424.201 421.915L390.365 391.675C391.592 391.433 392.804 391.119 393.994 390.734C393.967 391.464 394.11 392.19 394.412 392.854C394.714 393.519 395.166 394.104 395.733 394.564C396.301 395.024 396.967 395.345 397.68 395.503C398.393 395.66 399.132 395.649 399.841 395.472C399.975 396.184 400.276 396.855 400.719 397.429C401.162 398.004 401.734 398.465 402.389 398.776C403.044 399.087 403.763 399.24 404.488 399.22C405.213 399.2 405.923 399.01 406.561 398.664C411.197 396.547 406.561 395.74 414.053 396.412C415.028 396.412 416.069 396.614 417.077 396.648C417.38 398.227 417.682 399.672 418.018 401.049C418.099 401.324 418.267 401.565 418.498 401.735C418.729 401.905 419.009 401.994 419.295 401.99C479.372 400.713 449.871 392.414 424.133 421.915H424.201ZM343.561 296.788C339.764 284.054 337.781 273.772 330.121 271.152C330.121 271.555 332.977 270.715 233.521 274.512C233.521 258.148 232.815 218.568 232.714 212.553H353.17C352.229 227.102 353.17 242.793 363.25 253.612C362.041 254.083 359.89 255.091 359.386 255.931C360.625 261.361 362.288 266.686 364.359 271.857C355.344 278.219 348.132 286.809 343.426 296.788H343.561ZM329.751 192.931C329.751 188.227 328.676 162.926 328.441 158.289H337.009C337.009 163.06 337.647 188.26 337.849 192.897C335.161 192.83 332.439 192.864 329.751 192.931ZM280.527 193.939C280.561 184.8 279.385 107.52 279.217 97.4396H287.785C287.785 122.976 288.524 186.849 288.658 193.804L280.527 193.939ZM227.506 110.409H236.108C236.108 132.484 236.813 188.227 236.981 194.846H228.85C228.884 186.58 227.708 119.616 227.506 110.409ZM154.561 200.86C154.09 198.004 150.193 108.528 148.613 74.2556C148.244 63.7052 151.033 50.7356 158.122 44.7212C158.122 68.2412 161.146 198.038 161.818 209.798C159.841 209.227 158.085 208.065 156.788 206.467C155.49 204.87 154.713 202.913 154.561 200.86ZM462.841 172.939C462.564 170.746 463.089 168.526 464.319 166.689C466.949 164.618 469.773 162.807 472.753 161.28C469.393 167.328 470.266 165.648 472.047 271.824C469.275 269.711 466.393 267.748 463.412 265.944C463.076 249.009 462.908 187.454 462.941 172.939H462.841ZM492.207 210.268C493.768 208.052 495.843 206.247 498.254 205.007C500.664 203.766 503.339 203.128 506.05 203.145C519.725 203.145 524.698 219.408 527.386 232.646C529.738 243.028 529.906 255.259 537.466 263.726C572.612 295.579 575.266 251.126 596.636 252.84C603.356 253.612 607.825 259.761 612.629 264.196C614.683 266.503 617.565 267.907 620.647 268.102C623.73 268.297 626.765 267.268 629.093 265.238V312.984C620.828 312.984 515.861 312.211 504.337 312.345C501.531 306.473 498.226 300.852 494.458 295.545C494.861 291.48 492.375 213.897 492.308 210.268H492.207ZM505.647 314.63C521.103 314.865 619.181 315.134 629.362 315.134C629.377 316.414 629.455 317.692 629.597 318.964C629.622 319.235 629.745 319.487 629.943 319.673C630.141 319.859 630.401 319.965 630.673 319.972C632.655 319.972 631.748 323.03 631.412 231.907C631.412 231.684 631.323 231.47 631.166 231.313C631.008 231.155 630.795 231.067 630.572 231.067C630.349 231.067 630.135 231.155 629.978 231.313C629.82 231.47 629.732 231.684 629.732 231.907C629.732 237.888 629.362 257.644 629.329 261.542C628.557 262.757 627.51 263.771 626.271 264.503C625.032 265.234 623.637 265.661 622.202 265.75C620.766 265.838 619.329 265.585 618.01 265.012C616.691 264.438 615.526 263.56 614.612 262.449C604.901 252.369 595.292 243.969 581.247 256.939C569.756 268.8 563.439 278.812 547.647 268.564C541.253 265.157 536.434 259.398 534.207 252.504C528.898 233.452 530.377 204.052 507.932 200.155C504.931 199.848 501.901 200.282 499.107 201.418C496.312 202.555 493.839 204.359 491.905 206.673C491.905 201.566 491.535 196.593 491.333 191.419C491.333 191.205 491.248 191 491.097 190.849C490.946 190.697 490.741 190.612 490.527 190.612C490.313 190.612 490.108 190.697 489.957 190.849C489.806 191 489.721 191.205 489.721 191.419C489.721 196.996 491.468 274.881 492.005 291.984C486.828 285.207 480.873 279.061 474.265 273.672C474.265 260.87 473.122 177.744 472.988 172.603C472.786 163.262 476.516 157.852 485.117 155.601C492.173 153.652 619.047 151.704 631.109 153.35C639.106 154.358 643.676 162.187 644.818 168.974C646.229 177.408 646.633 316.814 646.666 318.662C646.935 335.126 644.986 353.908 627.85 356.227C623.986 356.764 528.394 357 514.517 356.865C514.947 342.29 511.93 327.82 505.714 314.63H505.647ZM407.266 53.0876C411.298 60.1436 409.013 58.1948 411.869 174.249C397.959 167.966 378.269 173.745 364.829 180.969V81.4124C364.829 80.6396 366.577 80.8748 354.749 80.8748C354.01 80.8748 354.077 73.9532 356.564 186.547C354.547 188.367 352.795 190.459 351.356 192.763H340.066C340.066 188.395 338.789 157.416 338.655 157.147C338.616 156.972 338.518 156.816 338.377 156.706C338.236 156.596 338.061 156.538 337.882 156.542C334.252 156.42 330.617 156.499 326.996 156.777C326.888 156.85 326.803 156.952 326.75 157.071C326.697 157.189 326.677 157.32 326.693 157.449C326.693 160.809 327.298 188.092 327.533 192.931L314.866 193.2C315.505 135.811 315.74 138.835 314.866 138.768C305.761 139.137 305.559 138.969 305.559 139.641V193.401L290.775 193.704C290.775 186.211 289.633 101.539 289.397 96.6332C289.407 96.4122 289.333 96.1957 289.19 96.0274C289.046 95.859 288.844 95.7513 288.625 95.726C288.625 95.726 278.108 95.726 277.772 96.062C276.797 96.8348 278.309 190.142 278.309 193.972L262.349 194.275V144.11C262.231 144.063 262.099 144.063 261.98 144.11C252.706 144.11 252.807 144.11 252.807 144.849V194.476L239.165 194.88C238.225 108.124 237.452 109.704 237.788 109.704C237.789 109.488 237.711 109.28 237.568 109.119C237.426 108.958 237.229 108.855 237.015 108.83C237.015 108.83 226.565 108.83 226.229 109.099C225.087 109.804 226.7 189.168 226.7 195.148L208.22 195.484C208.321 64.5452 208.69 70.5596 207.817 70.5596L199.585 70.862C199.013 70.862 199.215 62.8316 199.215 195.619C185.372 195.888 185.775 195.619 185.573 196.156C185.509 196.261 185.473 196.381 185.469 196.504C185.465 196.627 185.493 196.749 185.551 196.858C185.609 196.966 185.694 197.058 185.798 197.124C185.902 197.189 186.022 197.226 186.145 197.232C206.54 197.232 330.053 195.988 350.18 195.384C348.164 200.524 348.533 206.203 353.204 209.193V209.932C333.783 210.504 167.597 209.932 164.607 209.932C164.607 205.531 160.844 51.8108 160.81 43.2092C184.095 43.2092 389.29 43.5116 394.633 44.3852C397.251 44.8094 399.743 45.8102 401.928 47.3152C404.113 48.8202 405.936 50.7918 407.266 53.0876ZM41.0262 203.952C37.1622 209.529 36.9606 216.787 36.9606 223.809C36.9606 225.355 41.6646 390.734 42.3702 394.766C42.772 397.692 43.7955 400.499 45.3719 402.996C46.9482 405.494 49.0409 407.626 51.5094 409.248C47.5599 409.049 43.6989 408.006 40.1862 406.19C32.727 402.091 29.9046 393.657 28.8966 388.987C27.1158 380.587 24.7638 236.308 25.167 228.849C24.9318 216.484 29.1318 209.798 40.959 203.952H41.0262ZM545.026 583.934C558.475 582.996 571.65 579.674 583.935 574.123C592.671 570.091 603.557 563.707 608.06 558.633C608.765 574.492 605.54 584.74 589.244 592.233C567.672 602.313 516.5 614.678 494.391 599.928C492.409 598.012 487.671 583.464 485.789 576.744C495.433 583.161 523.522 585.648 544.959 583.934H545.026ZM241.148 627.95C238.325 627.715 236.981 630.537 236.041 632.587C228.178 649.387 228.279 650.462 220.282 651C217.762 651.168 194.041 653.116 192.293 653.116C186.178 653.553 182.785 649.353 187.119 644.212C189.59 642.349 192.332 640.876 195.25 639.844C204.591 635.51 219.375 624.052 222.634 609.873C226.007 613.835 230.608 616.556 235.705 617.601C242.015 618.278 248.38 616.975 253.916 613.872C252.639 621.129 249.682 643.742 249.313 650.832C247.348 650.626 245.374 650.536 243.399 650.563C243.365 648.648 242.727 628.084 241.081 627.95H241.148ZM253.513 610.646C249.146 613.734 243.908 615.347 238.561 615.249C235.732 615.036 232.977 614.243 230.469 612.919C227.96 611.596 225.751 609.77 223.978 607.555C223.978 606.513 223.609 595.257 223.709 589.209C234.596 590.068 245.524 590.281 256.436 589.848C255.898 592.804 254.185 604.8 253.445 610.646H253.513Z" fill="white"/>
<path d="M588.001 176.936C588.191 176.898 588.362 176.794 588.484 176.644C588.607 176.494 588.674 176.307 588.674 176.113C588.674 175.919 588.607 175.731 588.484 175.581C588.362 175.431 588.191 175.328 588.001 175.29H582.356C540.121 176.6 541.499 176.566 541.532 177.742C541.566 178.918 540.255 179.187 588.001 176.936ZM589.412 184.798C581.886 184.798 552.452 185.202 544.892 185.806C544.627 185.852 544.387 185.991 544.213 186.197C544.04 186.402 543.945 186.663 543.945 186.932C543.945 187.201 544.04 187.462 544.213 187.668C544.387 187.874 544.627 188.012 544.892 188.058C552.587 188.058 581.852 186.546 589.446 186.243C589.61 186.204 589.756 186.109 589.859 185.975C589.962 185.841 590.016 185.676 590.012 185.507C590.008 185.338 589.947 185.176 589.837 185.047C589.728 184.918 589.578 184.83 589.412 184.798ZM582.02 197.163C576.779 197.365 559.945 197.163 543.884 197.163C543.528 197.163 543.186 197.305 542.934 197.557C542.682 197.809 542.54 198.151 542.54 198.507C542.54 198.864 542.682 199.206 542.934 199.458C543.186 199.71 543.528 199.851 543.884 199.851C547.244 200.086 578.761 198.776 582.054 198.642C582.25 198.637 582.436 198.555 582.572 198.413C582.707 198.272 582.781 198.082 582.776 197.886C582.772 197.69 582.69 197.503 582.548 197.368C582.406 197.232 582.216 197.159 582.02 197.163ZM473.761 29.2641C469.824 30.231 466.222 32.2479 463.341 35.0999C460.459 37.9519 458.405 41.5321 457.398 45.4593C453.668 59.7393 466.604 75.2961 481.489 72.8097C484.742 72.1228 487.82 70.7792 490.536 68.861C493.251 66.9429 495.546 64.4907 497.281 61.6545C498.976 58.5242 499.938 55.0501 500.095 51.494C500.252 47.9378 499.6 44.3924 498.188 41.1249C496.172 35.3457 490.191 26.1057 473.761 29.2641ZM481.892 57.5889C475.407 62.0577 467.814 53.9265 470.804 48.9201C476.18 39.9825 485.723 46.7361 485.958 50.0961C485.954 51.5879 485.577 53.055 484.861 54.3638C484.145 55.6726 483.113 56.7813 481.859 57.5889H481.892ZM481.489 42.3009C479.221 41.5873 476.781 41.6455 474.55 42.4662C472.319 43.2869 470.423 44.8239 469.158 46.8369C468.124 48.6491 467.734 50.7578 468.051 52.8199C468.369 54.8819 469.374 56.7759 470.905 58.1937C472.124 59.3641 473.624 60.202 475.259 60.6274C476.895 61.0528 478.613 61.0513 480.248 60.6232C481.883 60.195 483.381 59.3545 484.598 58.182C485.816 57.0095 486.712 55.5443 487.201 53.9265C490.068 55.8071 493.276 57.1084 496.643 57.7569C495.453 60.6593 493.628 63.2584 491.303 65.3633C488.977 67.4681 486.209 69.0251 483.203 69.9201C469.763 73.8177 457.801 61.6209 459.313 48.4497C459.756 45.3821 460.89 42.4552 462.629 39.8899C464.368 37.3247 466.668 35.188 469.354 33.6412C472.039 32.0945 475.041 31.178 478.133 30.9611C481.225 30.7441 484.326 31.2323 487.201 32.3889C484.54 35.2006 482.573 38.5947 481.455 42.3009H481.489Z" fill="white"/>
<path d="M443.521 86.9563C451.719 86.5195 601.844 85.3771 612.798 82.1179C621.231 80.5723 624.121 76.6747 623.684 68.1739C623.684 65.3515 624.155 32.9947 623.281 27.2491C622.508 20.1595 618.711 16.7995 610.715 16.3627C603.995 15.7243 448.259 18.1435 440.9 19.7227C434.919 20.8987 430.82 23.0827 430.014 29.8027C429.644 31.8523 431.257 69.7867 431.459 73.4827C431.929 81.4795 435.927 86.2171 443.521 86.9563ZM456.625 84.6715C454.647 84.4331 452.746 83.7577 451.061 82.6943C449.375 81.6308 447.948 80.2059 446.881 78.5227C444.512 74.4437 443.293 69.7992 443.353 65.0827C442.983 59.3707 441.908 38.2027 441.774 33.0955C441.774 31.0123 441.774 24.0907 446.881 21.6043C454.777 20.7979 601.878 18.6139 608.161 18.8155C611.521 18.8155 616.057 19.0843 618.611 21.6715C622.374 25.4683 621.164 31.7515 621.399 67.8715C622.139 77.0779 618.644 79.0939 610.043 80.3371C602.315 81.5131 457.969 84.6715 456.692 84.6715H456.625ZM439.489 28.8283C439.052 31.8523 440.833 60.7483 441.001 64.5787C441.404 74.0875 444.126 80.8411 449.502 84.7387H446.142C437.943 84.7387 434.214 80.8075 433.844 72.4411C433.643 67.6699 432.097 32.1211 432.433 30.1051C433.139 23.9899 437.271 22.6459 442.748 21.9739C441.05 23.9062 439.942 26.2851 439.556 28.8283H439.489Z" fill="white"/>
<path d="M518.785 37.5313C520.028 37.5313 558.601 36.5569 558.265 36.5569C558.438 36.5201 558.594 36.425 558.705 36.2874C558.817 36.1498 558.878 35.978 558.878 35.8009C558.878 35.6238 558.817 35.452 558.705 35.3144C558.594 35.1768 558.438 35.0816 558.265 35.0449C555.409 35.0449 522.112 34.4737 518.718 35.0449C518.459 35.1387 518.236 35.3116 518.081 35.5391C517.926 35.7666 517.847 36.0371 517.854 36.3123C517.862 36.5875 517.956 36.8534 518.123 37.0722C518.29 37.291 518.522 37.4516 518.785 37.5313ZM570.092 48.0817C565.254 48.5521 516.668 46.9057 516.332 49.3585C516.332 49.8289 516.769 50.1985 517.105 50.2657C521.339 50.7697 569.924 49.7281 570.26 49.6945C570.366 49.6834 570.469 49.6517 570.563 49.601C570.656 49.5502 570.739 49.4816 570.806 49.3989C570.873 49.3162 570.923 49.2211 570.953 49.1191C570.984 49.017 570.994 48.91 570.983 48.8041C570.972 48.6982 570.94 48.5955 570.889 48.5019C570.839 48.4083 570.77 48.3256 570.687 48.2585C570.604 48.1914 570.509 48.1413 570.407 48.1109C570.305 48.0806 570.198 48.0707 570.092 48.0817ZM569.118 60.9841C560.819 60.9841 518.987 60.7825 516.803 61.1521C516.588 61.209 516.398 61.3355 516.262 61.5117C516.126 61.6879 516.053 61.9041 516.053 62.1265C516.053 62.3489 516.126 62.565 516.262 62.7413C516.398 62.9175 516.588 63.0439 516.803 63.1009C519.121 63.4705 565.724 62.3953 569.152 62.2945C569.299 62.257 569.43 62.1704 569.522 62.0489C569.614 61.9274 569.662 61.7782 569.658 61.6259C569.654 61.4735 569.599 61.3269 569.501 61.2103C569.402 61.0937 569.267 61.0139 569.118 60.9841ZM94.0812 276.226C116.828 274.378 128.891 245.078 111.217 228.816C110.579 228.245 111.788 226.968 93.174 253.882C70.662 232.546 71.8716 233.352 71.3676 233.722C53.5596 251.294 71.1996 278.107 94.0812 276.226Z" fill="white"/>
<path d="M91.5941 242.861C92.2325 243.567 91.9301 243.667 107.151 217.997C107.187 217.94 107.212 217.876 107.223 217.809C107.235 217.743 107.232 217.674 107.217 217.608C107.201 217.543 107.172 217.481 107.132 217.426C107.092 217.372 107.041 217.326 106.983 217.291C101.615 214.467 95.4658 213.492 89.4879 214.519C83.51 215.545 78.038 218.516 73.9205 222.97C73.5173 223.474 72.9125 222.499 91.5941 242.861ZM56.4821 367.349C57.3439 367.343 58.1848 367.083 58.8989 366.6C59.613 366.118 60.1685 365.435 60.4954 364.638C60.8222 363.84 60.9059 362.964 60.7359 362.119C60.5658 361.274 60.1496 360.499 59.5397 359.89C61.2197 357.168 72.1061 339.259 75.2981 334.421C76.1254 334.803 77.0487 334.928 77.9477 334.778C78.8467 334.628 79.6797 334.211 80.3381 333.581L95.8613 345.543C95.6082 346.291 95.5631 347.095 95.7307 347.868C95.8984 348.64 96.2725 349.353 96.8133 349.929C97.354 350.506 98.0411 350.925 98.8013 351.142C99.5615 351.358 100.366 351.365 101.13 351.16C101.893 350.956 102.587 350.548 103.137 349.98C103.687 349.412 104.073 348.706 104.253 347.936C104.433 347.166 104.4 346.362 104.159 345.609C103.918 344.856 103.477 344.183 102.884 343.661L108.394 336.403C109.38 336.855 110.498 336.926 111.534 336.603C112.57 336.281 113.45 335.588 114.005 334.656L130.066 340.099C129.979 340.822 130.075 341.555 130.343 342.232C130.612 342.908 131.045 343.507 131.604 343.973C132.163 344.44 132.829 344.759 133.543 344.903C134.256 345.046 134.995 345.009 135.69 344.794C136.386 344.58 137.017 344.195 137.526 343.674C138.035 343.154 138.405 342.515 138.604 341.815C138.804 341.114 138.824 340.376 138.665 339.665C138.506 338.955 138.172 338.296 137.693 337.747C139.037 332.943 150.663 297.427 151.839 294.067C152.967 293.969 154.014 293.44 154.762 292.589C157.954 295.109 167.53 302.266 170.621 304.349C170.445 305.044 170.442 305.773 170.614 306.469C170.786 307.166 171.126 307.81 171.606 308.344C172.085 308.877 172.689 309.285 173.364 309.53C174.038 309.775 174.762 309.85 175.473 309.748C176.183 309.647 176.857 309.372 177.436 308.948C178.015 308.524 178.481 307.964 178.792 307.317C179.102 306.67 179.249 305.957 179.219 305.24C179.189 304.523 178.982 303.825 178.618 303.207C187.556 288.96 187.959 289.195 187.018 288.557C186.841 288.447 186.63 288.407 186.425 288.444C186.22 288.481 186.036 288.594 185.909 288.759C184.33 291.043 176.871 301.527 176.871 301.527C176.076 301.135 175.184 300.987 174.305 301.101C173.426 301.214 172.601 301.584 171.932 302.165C168.807 299.981 158.895 292.891 155.737 290.439C155.871 289.663 155.794 288.866 155.513 288.131C155.233 287.395 154.758 286.75 154.141 286.262C153.523 285.774 152.785 285.462 152.005 285.359C151.224 285.256 150.431 285.366 149.708 285.677C148.985 285.988 148.359 286.488 147.897 287.125C147.435 287.763 147.154 288.513 147.083 289.297C147.012 290.08 147.154 290.869 147.495 291.579C147.835 292.288 148.361 292.893 149.017 293.328C146.127 301.191 137.727 328.407 135.577 336.336C134.769 336.128 133.92 336.15 133.124 336.399C132.328 336.648 131.618 337.115 131.074 337.747C127.714 336.605 117.634 333.547 114.577 332.573C114.577 331.423 114.12 330.321 113.307 329.508C112.494 328.695 111.392 328.239 110.242 328.239C109.093 328.239 107.99 328.695 107.177 329.508C106.364 330.321 105.908 331.423 105.908 332.573C105.915 333.533 106.233 334.464 106.815 335.227L100.801 342.72C100.224 342.594 99.6284 342.588 99.0501 342.704C98.4718 342.82 97.9237 343.054 97.4405 343.392L81.4133 331.263C81.5882 330.222 81.3779 329.154 80.8218 328.258C80.2656 327.362 79.4018 326.699 78.3922 326.394C77.3826 326.09 76.2964 326.163 75.3371 326.602C74.3779 327.04 73.6114 327.813 73.1813 328.776C72.8471 329.469 72.711 330.24 72.7881 331.005C72.8652 331.77 73.1525 332.499 73.6181 333.111C70.4597 337.848 59.0021 356.16 57.3557 358.815C56.7527 358.663 56.1241 358.643 55.5126 358.756C54.9012 358.869 54.3212 359.112 53.812 359.469C53.3029 359.826 52.8764 360.288 52.5617 360.824C52.247 361.361 52.0513 361.958 51.988 362.577C51.9247 363.196 51.9952 363.821 52.1948 364.409C52.3943 364.998 52.7182 365.537 53.1445 365.99C53.5708 366.443 54.0895 366.798 54.6654 367.033C55.2413 367.267 55.8609 367.375 56.4821 367.349ZM114.946 379.243C114.697 379.243 114.457 379.342 114.281 379.519C114.104 379.695 114.005 379.935 114.005 380.184C114.005 380.434 114.104 380.673 114.281 380.849C114.457 381.026 114.697 381.125 114.946 381.125C120.826 381.125 189.841 378.437 192.226 378.403C192.383 378.369 192.523 378.281 192.623 378.156C192.724 378.031 192.779 377.875 192.779 377.715C192.779 377.554 192.724 377.398 192.623 377.273C192.523 377.148 192.383 377.061 192.226 377.026C182.852 377.059 120.961 378.571 114.946 379.243ZM144.481 355.219C144.694 355.219 144.9 355.134 145.051 354.983C145.202 354.832 145.287 354.627 145.287 354.413C145.287 354.199 145.202 353.994 145.051 353.843C144.9 353.692 144.694 353.607 144.481 353.607C141.826 353.607 132.217 353.035 129.965 353.136C129.573 353.136 129.197 353.292 128.92 353.569C128.643 353.846 128.487 354.222 128.487 354.615C128.487 355.007 128.643 355.383 128.92 355.66C129.197 355.937 129.573 356.093 129.965 356.093C132.183 356.362 141.692 355.455 144.481 355.219ZM108.562 359.52H94.0805C93.7674 359.535 93.4639 359.633 93.202 359.806C92.9401 359.978 92.7294 360.218 92.592 360.499C92.4545 360.781 92.3954 361.095 92.4208 361.407C92.4463 361.72 92.5553 362.02 92.7365 362.275C93.6437 363.619 94.3493 362.578 108.629 361.368C108.807 361.283 108.955 361.149 109.057 360.981C109.159 360.813 109.209 360.618 109.202 360.422C109.195 360.226 109.13 360.036 109.017 359.876C108.903 359.715 108.745 359.592 108.562 359.52ZM51.2741 377.463C51.9797 377.463 62.1941 376.354 64.4453 376.253C64.6948 376.253 64.9341 376.154 65.1106 375.977C65.287 375.801 65.3861 375.562 65.3861 375.312C65.3861 375.063 65.287 374.823 65.1106 374.647C64.9341 374.47 64.6948 374.371 64.4453 374.371C63.1349 374.371 51.7781 374.842 51.0053 375.211C50.8002 375.335 50.6351 375.515 50.5298 375.73C50.4246 375.945 50.3837 376.186 50.4121 376.424C50.4405 376.662 50.5369 376.886 50.6899 377.07C50.8428 377.255 51.0457 377.391 51.2741 377.463Z" fill="white"/>
<path d="M169.849 319.198H170.387C184.667 317.922 184.163 318.896 184.767 318.224C184.879 318.092 184.952 317.932 184.979 317.762C185.006 317.591 184.985 317.416 184.919 317.257C184.853 317.097 184.745 316.959 184.605 316.857C184.466 316.755 184.301 316.693 184.129 316.678C179.123 316.678 174.419 316.242 169.916 316.443C168.001 316.477 168.169 319.198 169.849 319.198ZM94.7194 289.866C94.354 289.866 94.0036 290.011 93.7453 290.269C93.4869 290.527 93.3418 290.878 93.3418 291.243C93.3418 291.609 93.4869 291.959 93.7453 292.217C94.0036 292.476 94.354 292.621 94.7194 292.621C99.5242 292.621 118.239 290.907 122.775 290.437C122.99 290.396 123.184 290.281 123.324 290.112C123.463 289.944 123.539 289.732 123.539 289.513C123.539 289.294 123.463 289.082 123.324 288.913C123.184 288.745 122.99 288.63 122.775 288.589C118.105 288.958 99.3562 289.462 94.7194 289.866ZM92.4346 297.728C92.1643 297.795 91.9278 297.958 91.7695 298.188C91.6113 298.417 91.5422 298.696 91.5752 298.972C91.6082 299.249 91.7411 299.504 91.9488 299.689C92.1566 299.875 92.4249 299.978 92.7034 299.979C98.0122 299.979 118.844 298.098 124.086 298.064C124.317 298.064 124.54 297.972 124.704 297.808C124.867 297.644 124.959 297.422 124.959 297.19C124.959 296.959 124.867 296.737 124.704 296.573C124.54 296.409 124.317 296.317 124.086 296.317C113.516 296.084 102.942 296.556 92.4346 297.728ZM121.398 303.104C112.605 302.977 103.811 303.325 95.0554 304.146C93.4426 304.347 93.3754 306.8 95.0554 306.8C98.0458 306.8 114.375 305.12 121.431 304.851C121.546 304.849 121.659 304.824 121.764 304.778C121.87 304.732 121.965 304.666 122.044 304.583C122.124 304.501 122.186 304.403 122.228 304.296C122.27 304.19 122.29 304.076 122.288 303.961C122.286 303.846 122.261 303.733 122.215 303.628C122.169 303.523 122.103 303.428 122.02 303.348C121.938 303.268 121.84 303.206 121.733 303.164C121.627 303.122 121.513 303.102 121.398 303.104ZM132.452 230.73C134.099 230.73 150.865 228.982 154.158 228.747C154.389 228.747 154.612 228.655 154.776 228.491C154.939 228.327 155.031 228.105 155.031 227.874C155.031 227.642 154.939 227.42 154.776 227.256C154.612 227.092 154.389 227 154.158 227C152.511 227 134.535 227.538 132.553 227.672C130.571 227.806 130.571 230.73 132.452 230.73ZM135.913 237.517C141.188 237.517 161.751 235.568 166.959 235.232C167.149 235.193 167.32 235.09 167.443 234.94C167.565 234.79 167.632 234.603 167.632 234.409C167.632 234.215 167.565 234.027 167.443 233.877C167.32 233.727 167.149 233.624 166.959 233.586C161.718 233.821 141.02 233.922 135.879 234.459C135.513 234.518 135.181 234.706 134.941 234.989C134.702 235.272 134.573 235.632 134.577 236.002C134.581 236.373 134.718 236.73 134.964 237.008C135.209 237.286 135.546 237.466 135.913 237.517Z" fill="white"/>
</svg>
