<svg width="645" height="537" viewBox="0 0 645 537" fill="none" xmlns="http://www.w3.org/2000/svg">
<path d="M641.875 434.94C636.391 383.894 589.136 305.396 560.905 262.508C576.668 263.769 592.489 264.165 608.295 263.693C612.797 263.693 624.577 262.88 626.845 262.44C628.165 262.17 628.368 260.917 626.371 260.849C624.374 260.782 610.157 260.105 608.228 260.071H573.802C568.522 260.274 560.262 260.748 559.788 260.748C549.633 245.278 542.559 235.597 542.491 235.563C542.413 235.485 542.319 235.423 542.216 235.384C542.112 235.344 542.002 235.327 541.891 235.333C541.78 235.34 541.672 235.37 541.574 235.421C541.476 235.473 541.39 235.545 541.322 235.632C541.254 235.72 541.206 235.821 541.18 235.929C541.154 236.036 541.151 236.148 541.172 236.257C541.193 236.366 541.237 236.469 541.301 236.56C541.365 236.65 541.448 236.726 541.543 236.782C543.1 238.034 611.511 337.994 632.43 406.844C640.724 434.161 645.632 468.451 618.89 477.929C555.388 500.609 58.0297 507.988 11.0121 481.314C4.47903 477.625 2.95578 469.941 4.24208 459.583C6.23923 445.196 13.9909 425.733 23.3335 403.933C33.8608 414.088 121.194 494.279 135.343 491.266C149.492 488.254 229.074 451.289 232.357 444.215C234.265 439.301 235.274 434.084 235.336 428.813C235.737 428.262 235.923 427.583 235.861 426.905C235.799 426.226 235.492 425.593 234.998 425.123C229.751 419.911 125.662 337.384 118.96 337.621C114.288 337.824 105.826 342.631 101.798 345C100.492 342.864 98.5473 341.191 96.2392 340.219C93.9311 339.247 91.376 339.025 88.9348 339.585C86.6331 340.514 84.5722 341.954 82.907 343.795C81.2419 345.636 80.016 347.83 79.3214 350.213C79.3593 350.396 79.4591 350.561 79.604 350.678C79.7489 350.796 79.93 350.861 80.1169 350.861C80.3037 350.861 80.4848 350.796 80.6297 350.678C80.7746 350.561 80.8744 350.396 80.9123 350.213C82.9483 346.77 86.1759 344.193 89.9841 342.969C91.5676 342.726 93.1875 342.938 94.6556 343.579C96.1237 344.22 97.3796 345.265 98.2774 346.591L60.6362 362.67C58.6376 360.616 56.1425 359.111 53.3923 358.304C46.9608 356.611 42.628 360.842 40.0554 367.037C39.9987 367.215 40.0053 367.407 40.0739 367.581C40.1425 367.755 40.2691 367.9 40.4321 367.992C40.5952 368.083 40.7848 368.115 40.969 368.083C41.1532 368.051 41.3207 367.957 41.4432 367.815C45.776 361.553 50.7858 359.421 56.7773 364.43C49.5334 367.646 39.4122 372.216 32.3037 375.736C32.8115 374.924 105.86 242.638 105.86 242.3C109.076 236.342 115.541 225.679 122.209 224.291C125.223 223.634 128.298 223.294 131.383 223.276C126.678 231.061 88.4947 294.361 88.427 303.297C88.427 313.452 90.1872 311.861 95.6032 313.452C101.019 315.043 404.078 313.181 404.62 313.181C409.867 313.181 430.38 312.504 432.275 311.117C438.165 306.784 436.845 300.318 434.273 293.515C433.663 291.89 430.583 285.154 426.453 276.15C444.224 270.801 457.595 277.605 458.814 306.615C460.032 331.697 450.148 339.348 431.226 338.264C416.027 337.384 405.534 332.916 402.217 338.84C398.493 345.441 408.783 360.267 413.252 366.428C412.608 366.428 384.276 365.852 377.134 365.547C367.069 365.158 356.991 365.282 346.939 365.92C340.017 366.072 333.135 367.015 326.426 368.729C323.888 369.982 320.604 376.515 319.216 379.257C316.474 384.639 303.984 418.421 300.531 428.17C298.5 433.789 291.629 452.407 296.232 455.69C296.063 459.312 296.638 464.152 299.82 465.845C303.002 467.537 346.736 468.756 350.088 468.824C356.011 468.993 415.892 469.772 454.109 468.079C492.325 466.387 509.013 462.731 508.032 462.832C509.002 462.547 509.874 461.996 510.55 461.243C511.225 460.49 511.678 459.563 511.857 458.567C512.379 456.065 512.215 453.469 511.383 451.052C515.648 442.759 483.389 373.908 474.452 369.068C473.925 368.771 473.332 368.608 472.726 368.594C470.932 368.594 430.786 366.901 415.181 366.394C411.796 361.621 400.795 343.646 405.026 339.821C411.458 334.202 465.178 362.366 462.3 306.31C460.811 280.956 449.133 266.096 425.438 274.694C423.373 270.226 406.042 233.194 401.404 223.344C419.369 224.419 437.393 224.022 455.293 222.159C455.55 225.318 456.459 228.39 457.962 231.18C459.465 233.971 461.53 236.42 464.027 238.373C477.567 248.528 531.456 247.005 541.238 234.582C543.98 230.833 545.875 226.534 546.792 221.981C547.71 217.428 547.628 212.731 546.553 208.213C547.453 207.64 548.152 206.799 548.55 205.809C549.092 204.76 548.55 203.44 546.214 202.966C543.201 202.515 540.154 202.333 537.109 202.424C537.109 199.649 537.278 194.47 537.109 188.58C537.413 188.377 539.614 185.736 539.851 185.432C542.548 182.279 544.678 178.683 546.147 174.803C547.264 171.655 547.704 168.033 544.759 166.272C540.223 163.801 537.041 168.337 535.518 173.415C534.096 165.595 530.813 154.12 522.96 155.271C509.623 157.302 518.83 189.629 523.163 202.424C519.356 201.888 515.494 201.888 511.687 202.424C515.919 191.795 518.085 178.052 507.219 175.987C505.572 175.623 503.854 175.75 502.278 176.351C500.702 176.953 499.336 178.003 498.351 179.372C498.133 178.606 497.725 177.908 497.164 177.343C496.603 176.777 495.908 176.364 495.143 176.14C494.379 175.917 493.57 175.892 492.793 176.066C492.016 176.241 491.296 176.61 490.7 177.138C485.725 180.726 488.568 188.952 494.356 191.66C494.052 195.14 494.052 198.64 494.356 202.12C490.753 201.684 487.105 201.764 483.524 202.357C483.324 194.091 482.418 185.859 480.816 177.748C482.873 176.284 484.603 174.409 485.897 172.241C487.191 170.074 488.02 167.661 488.331 165.155C488.805 160.653 487.214 156.896 483.457 155.914C478.751 154.696 475.976 157.979 475.163 162.684C471 156.93 462.842 154.865 458.881 161.466C446.188 148.264 440.061 155.644 443.277 161.466C445.68 165.934 451.942 168.439 456.817 169.827C456.817 177.409 460.202 183.807 464.399 190.34C467.209 194.74 470.357 198.972 472.794 202.086C467.527 201.917 462.255 202.257 457.054 203.101C453.872 203.948 453.364 206.249 456.309 207.908C455.378 211.876 455.035 215.959 455.293 220.026C437.11 219.059 418.879 219.489 400.761 221.313C399.61 218.842 396.191 211.631 395.785 210.785C395.379 209.939 398.628 200.122 403.198 108.863C424.185 107.103 518.559 109.201 527.225 105.85C527.721 105.672 528.162 105.365 528.501 104.96C528.84 104.556 529.065 104.069 529.154 103.548C532.031 94.1043 533.995 12.932 529.154 5.38343C527.969 3.52168 523.738 2.94624 521.402 2.60774C491.242 -1.79276 365.388 0.102831 358.922 3.52168C352.457 6.94053 355.199 40.3166 356.417 46.9512C291.053 44.8525 140.116 48.9484 125.899 54.2628C122.514 55.4814 121.262 60.1189 120.585 63.6054C114.965 92.6149 130.74 185.973 136.02 214.813C135.682 214.813 136.02 214.813 131.89 221.245C128.395 220.986 124.881 221.168 121.431 221.786C113.713 222.971 106.604 233.634 102.678 240.269C102.509 240.607 92.5229 257.194 91.0335 259.902C82.5371 258.581 43.0342 259.089 38.0244 259.36C33.0146 259.631 27.8694 260.003 23.3335 260.342C22.5211 260.342 22.4534 261.899 23.3335 261.933C32.8115 262.508 36.298 262.711 43.6435 262.813C61.6178 263.083 88.1224 263.828 88.9686 263.727C87.2084 266.807 61.1439 313.181 57.6574 319.748C42.4926 348.182 30.5774 374.213 29.8665 376.413C25.9316 378.203 22.2359 380.477 18.8653 383.183C17.7781 386.166 17.1282 389.29 16.9358 392.458C16.7666 397.908 18.7299 399.228 21.7425 402.275C13.6588 419.595 7.01311 437.551 1.87258 455.961C0.194388 463.409 0.125145 471.129 1.66948 478.606C3.0516 486.081 5.63507 493.283 9.31958 499.932C10.9747 501.613 13.1194 502.727 15.4464 503.114C24.349 505.619 51.9367 508.834 61.1778 509.884C60.4811 514.02 60.2879 518.226 60.6023 522.408C60.6115 526.718 61.2384 531.004 62.4641 535.136C62.4752 535.238 62.5063 535.337 62.5557 535.427C62.6051 535.518 62.6718 535.597 62.752 535.662C62.8321 535.726 62.9242 535.774 63.0229 535.803C63.1216 535.832 63.225 535.841 63.3273 535.83C63.4295 535.819 63.5286 535.788 63.6188 535.738C63.709 535.689 63.7886 535.622 63.853 535.542C63.9174 535.462 63.9654 535.37 63.9943 535.271C64.0232 535.172 64.0323 535.069 64.0212 534.967C64.5627 530.747 64.71 526.486 64.4612 522.239C64.439 518.15 63.9736 514.076 63.0734 510.087C67.7447 510.493 72.2467 510.832 76.1733 510.967C75.5489 514.918 75.3785 518.927 75.6656 522.916C75.677 527.226 76.3039 531.511 77.5273 535.644C77.5273 535.85 77.6094 536.048 77.7554 536.194C77.9014 536.34 78.0994 536.422 78.3059 536.422C78.5124 536.422 78.7104 536.34 78.8564 536.194C79.0024 536.048 79.0844 535.85 79.0844 535.644C79.6442 531.426 79.8029 527.164 79.5583 522.916C79.5351 518.963 79.0811 515.025 78.2043 511.17C85.7529 511.339 196.849 521.325 388.71 517.534C440.129 516.518 501.939 514.149 552.849 508.564C552.177 512.646 551.984 516.792 552.274 520.919C552.29 525.219 552.928 529.495 554.169 533.613C554.145 533.726 554.147 533.843 554.174 533.956C554.201 534.069 554.253 534.174 554.326 534.264C554.399 534.354 554.491 534.427 554.596 534.477C554.7 534.527 554.815 534.553 554.931 534.553C555.047 534.553 555.161 534.527 555.266 534.477C555.371 534.427 555.463 534.354 555.536 534.264C555.609 534.174 555.661 534.069 555.688 533.956C555.715 533.843 555.716 533.726 555.692 533.613C556.284 529.397 556.443 525.133 556.166 520.885C556.129 516.704 555.641 512.539 554.711 508.462C558.468 508.056 567.168 506.973 567.912 506.871C567.246 510.931 567.064 515.056 567.371 519.159C567.373 523.469 568 527.756 569.232 531.886C569.255 532.093 569.358 532.282 569.52 532.412C569.682 532.542 569.889 532.603 570.096 532.58C570.302 532.558 570.491 532.454 570.621 532.292C570.751 532.131 570.812 531.924 570.79 531.717C571.347 527.51 571.494 523.259 571.23 519.023C571.208 514.852 570.72 510.697 569.774 506.634C585.04 504.569 631.72 498.273 638.083 485.241C645.598 470.381 644.989 451.053 641.875 434.94ZM333.84 380.441C334.212 379.528 345.552 377.056 357.941 380.441C358.054 380.417 358.172 380.419 358.284 380.446C358.397 380.473 358.502 380.525 358.592 380.598C358.682 380.671 358.755 380.763 358.805 380.868C358.855 380.973 358.881 381.087 358.881 381.203C358.881 381.319 358.855 381.433 358.805 381.538C358.755 381.643 358.682 381.735 358.592 381.808C358.502 381.881 358.397 381.933 358.284 381.96C358.172 381.987 358.054 381.989 357.941 381.965C351.772 383.061 345.472 383.22 339.256 382.439C336.344 381.965 332.655 381.931 333.738 380.441H333.84ZM507.862 460.937C476.551 466.894 303.578 465.54 300.971 464.322C298.365 463.103 298.128 459.177 298.06 456.604C316.813 462.697 500.043 457.992 510.232 452.61C510.774 455.588 510.909 460.361 507.761 460.937H507.862ZM442.16 380.814C442.16 379.663 449.607 379.02 449.945 378.986C454.373 378.645 458.82 378.645 463.248 378.986C465.719 379.257 469.138 379.595 468.867 380.645C468.596 381.694 463.485 382.134 462.605 382.269C459.297 382.574 455.975 382.71 452.653 382.676C450.419 382.608 441.923 382.202 442.058 380.814H442.16ZM485.657 392.086C494.125 408.223 501.236 425.036 506.915 442.353C507.636 444.54 508.036 446.821 508.099 449.123C492.833 453.862 316.881 458.736 299.076 453.625C298.229 453.388 297.992 453.625 297.789 452.203C296.503 442.996 311.566 406.404 315.053 397.874C379.097 395.742 484.98 392.458 485.555 392.086H485.657ZM457.155 168.303C453.453 166.27 450.094 163.665 447.203 160.586C445.883 158.589 446.188 157.201 450.08 159.096C452.518 160.213 455.937 162.21 458.238 163.598C457.647 165.105 457.282 166.69 457.155 168.303ZM538.395 174.363C541.103 169.488 543.777 168.1 543.506 170.978C542.052 176.126 539.983 181.081 537.346 185.736C537.143 182.351 536.906 180.083 536.635 177.849C536.77 177.375 537.447 175.954 538.294 174.363H538.395ZM524.009 203.812C524.686 205.742 525.126 206.892 525.16 206.96C525.197 207.056 525.253 207.144 525.325 207.218C525.396 207.292 525.481 207.351 525.576 207.392C525.67 207.433 525.772 207.455 525.875 207.456C525.978 207.458 526.08 207.439 526.175 207.4C527.665 206.825 525.464 205.437 521.944 185.025C520.895 178.932 517.78 160.146 523.941 159.266C528.951 158.521 531.659 170.944 532.607 175.852C534.363 185.313 535.494 194.879 535.992 204.489C535.989 204.677 536.055 204.859 536.176 205.002C536.297 205.145 536.465 205.24 536.651 205.269C536.836 205.297 537.025 205.258 537.184 205.159C537.343 205.059 537.46 204.905 537.515 204.726C537.526 204.534 537.526 204.342 537.515 204.151C540.575 204.241 543.617 204.661 546.587 205.403C546.209 205.844 545.734 206.192 545.199 206.419C538.09 210.074 516.596 209.364 509.183 209.228C510.198 207.197 510.909 205.64 511.687 203.778C515.733 204.443 519.858 204.455 523.907 203.812H524.009ZM497.606 196.399C498.384 189.629 500.111 178.831 506.948 180.117C513.786 181.403 512.06 191.322 510.57 197.956C509.652 201.762 508.522 205.514 507.185 209.194H497.03C496.949 204.924 497.107 200.652 497.504 196.399H497.606ZM493.307 180.489C493.464 180.339 493.651 180.224 493.856 180.151C494.061 180.077 494.278 180.048 494.495 180.064C494.712 180.08 494.923 180.141 495.115 180.243C495.307 180.346 495.475 180.487 495.609 180.659C496.148 181.199 496.635 181.788 497.064 182.419C496.103 184.578 495.431 186.854 495.067 189.189C493.307 186.752 491.039 182.317 493.307 180.489ZM482.644 159.909C487.045 161.297 483.592 172.873 480.647 176.394C479.833 172.75 478.618 169.208 477.025 165.832C478.007 162.854 479.665 158.961 482.644 159.875V159.909ZM474.317 204.184C475.976 206.283 477.059 207.569 477.059 207.569C477.193 207.702 477.371 207.781 477.56 207.793C477.749 207.804 477.935 207.746 478.084 207.63C478.233 207.514 478.335 207.348 478.37 207.162C478.406 206.977 478.373 206.785 478.278 206.622C478.278 206.622 472.286 198.091 467.344 189.257C463.62 182.487 460.066 175.717 461.048 168.236C461.826 162.346 464.941 159.841 470.187 163.26C477.77 168.134 481.222 198.193 482.306 207.265C482.316 207.502 482.4 207.73 482.545 207.918C482.691 208.106 482.891 208.245 483.118 208.314C484.032 208.314 483.897 207.333 483.863 206.859C483.829 206.385 483.863 204.015 483.863 203.778C487.459 204.233 491.098 204.233 494.695 203.778C494.898 206.249 495.135 208.179 495.304 209.194C483.287 209.194 468.766 210.007 458.814 206.114C463.929 205.102 469.11 204.457 474.317 204.184ZM458.103 209.16C463.054 211.079 468.272 212.221 473.572 212.545C479.564 213.087 520.353 213.155 524.991 212.918C531.983 212.803 538.907 211.51 545.47 209.093C546.1 213.249 545.862 217.491 544.773 221.552C543.684 225.612 541.766 229.403 539.14 232.686C530.914 242.333 478.887 244.534 466.396 235.733C458.171 230.08 456.681 218.774 458.103 209.127V209.16ZM430.82 308.544C431.531 310.812 108.771 310.914 108.432 310.88C94.8924 310.88 98.2774 310.88 93.7415 309.763C92.5229 309.492 92.2859 309.492 92.049 308.307C91.7619 306.449 91.6824 304.564 91.812 302.688C91.883 302.827 91.9977 302.939 92.1383 303.006C92.279 303.073 92.438 303.092 92.5906 303.06C92.5906 303.06 430.718 298.457 432.918 298.389C433.832 302.349 433.968 306.039 430.82 308.544ZM526.04 103.108C526.04 103.108 526.243 102.77 526.311 102.871C526.378 102.973 526.04 103.075 525.871 103.108H526.04ZM357.704 17.7387C357.704 15.5384 358.584 7.21133 360.547 6.19583C365.015 3.96173 507.016 2.06613 526.412 8.12528C529.797 15.2338 528.714 95.0859 525.871 103.108C509.216 105.715 425.404 105.512 403.604 107.746C404.925 81.1059 405.5 58.6633 404.417 54.2967C404.208 53.7272 403.87 53.2139 403.43 52.7969C402.989 52.3799 402.458 52.0706 401.878 51.8933C394.465 48.6776 366.573 47.7636 358.449 47.4928C357.394 37.6114 357.145 27.6605 357.704 17.7387ZM123.631 102.973C123.123 95.8645 120.618 59.9835 127.388 57.4786C130.773 56.2938 142.689 55.1091 159.986 54.0936C193.125 52.0287 245.356 50.3701 292.881 50.0316C303.442 50.0316 392.671 49.253 401.404 55.2445C403.977 66.9566 395.751 197.076 393.923 209.634C313.936 212.241 219.156 216.167 138.491 214.204C137.137 206.452 126.779 146.639 123.631 102.973ZM137.442 216.472C137.448 216.393 137.448 216.314 137.442 216.235C194.479 217.995 372.97 212.139 394.702 212.004C397.105 217.589 430.854 292.465 432.275 296.629C431.903 296.629 92.3198 301.232 91.8797 301.571C96.1448 287.286 131.417 226.898 137.442 216.472ZM230.495 443.267C227.991 448.141 152.099 482.059 136.494 486.764C136.797 485.204 136.91 483.613 136.833 482.025C159.884 474.037 209.915 452.948 232.357 438.02C231.93 439.843 231.305 441.613 230.495 443.301V443.267ZM232.831 435.786C226.061 439.78 219.596 442.556 136.799 480.197C136.802 478.665 136.597 477.139 136.189 475.661C147.021 470.584 220.476 442.116 233.576 430.776C233.407 432.232 233.17 433.992 232.831 435.82V435.786ZM58.4698 366.326C60.0975 368.243 61.1049 370.61 61.3588 373.112C61.6126 375.614 61.101 378.135 59.8915 380.34C59.3499 381.186 60.6362 382.066 61.1778 381.186C63.2213 378.959 64.4294 376.092 64.596 373.073C64.7627 370.055 63.8776 367.072 62.0917 364.633C78.5428 357.085 94.7231 349.976 99.1575 348.047C100.267 350.301 100.861 352.773 100.896 355.285C100.931 357.797 100.407 360.285 99.3606 362.569C98.9544 363.652 100.173 364.058 100.748 363.347C102.61 360.982 103.769 358.14 104.092 355.147C104.415 352.154 103.89 349.131 102.576 346.422C106.232 344.357 114.762 339.652 118.926 339.652C124.139 339.652 229.92 425.699 231.883 427.662C223.048 436.768 141.03 469.23 134.125 472.547C119.569 469.162 30.7466 392.763 22.4195 384.91C27.5986 380.611 52.6476 369.034 58.4698 366.326ZM19.8469 386.467C30.4081 396.791 118.52 473.698 133.278 476.135C132.982 477.411 132.846 478.719 132.872 480.028C109.177 468.451 41.4771 409.823 19.0684 390.969C19.1699 390.969 19.6777 387.652 19.9485 386.467H19.8469ZM20.3547 398.077C19.3999 396.624 18.9262 394.907 19.0007 393.169C41.1386 415.51 103.626 470.449 132.838 481.89C132.778 483.7 132.96 485.51 133.38 487.272C116.015 483.379 22.6565 400.853 20.4562 398.077H20.3547ZM636.425 484.124C614.558 527.52 21.1671 516.18 11.5537 499.255C7.47878 492.172 4.72599 484.407 3.42968 476.338C4.7355 479.198 6.91666 481.569 9.65808 483.108C59.4853 512.118 555.219 504.536 619.94 481.281C633.649 476.338 640.554 465.676 642.112 450.816C643.03 462.226 641.051 473.683 636.357 484.124H636.425Z" fill="white"/>
</svg>
